<svg width="20" height="20" viewBox="0 0 20 20" fill="none" xmlns="http://www.w3.org/2000/svg">
<path d="M10.0002 1.32779C2.27135 1.32529 -1.59974 10.6646 3.8638 16.1277C5.07671 17.3405 6.62217 18.1664 8.30471 18.5012C9.98725 18.8359 11.7313 18.6643 13.3163 18.0082C14.9013 17.352 16.2561 16.2408 17.2092 14.8149C18.1624 13.3891 18.6711 11.7128 18.6711 9.99788C18.6711 5.21071 14.79 1.32946 10.0002 1.32779V1.32779ZM5.08857 5.65242C5.50628 3.48719 8.33435 2.90713 9.57079 4.73316C10.8072 6.55835 9.21895 8.96861 7.05288 8.55189C6.73339 8.49055 6.42913 8.36687 6.15748 8.18793C5.88583 8.00899 5.65211 7.77829 5.46969 7.50902C5.28727 7.23975 5.15972 6.93719 5.09433 6.61863C5.02893 6.30006 5.02698 5.97174 5.08857 5.65242V5.65242ZM8.69202 13.1432C8.27182 15.3076 5.44292 15.8835 4.20897 14.0566C2.97503 12.2298 4.56498 9.82286 6.73105 10.2404C7.05058 10.3021 7.3548 10.4262 7.62633 10.6055C7.89785 10.7848 8.13136 11.0159 8.31348 11.2855C8.4956 11.5551 8.62278 11.8579 8.68773 12.1767C8.75269 12.4955 8.75414 12.8239 8.69202 13.1432V13.1432ZM9.74254 11.1388C8.78207 10.953 8.52361 9.69952 9.33317 9.14946C10.1419 8.5994 11.2141 9.29947 11.034 10.2612C11.0073 10.4038 10.9527 10.5396 10.8733 10.661C10.7939 10.7823 10.6912 10.8868 10.5713 10.9683C10.4513 11.0499 10.3164 11.1069 10.1744 11.1362C10.0323 11.1655 9.88581 11.1664 9.74338 11.1388H9.74254ZM14.9101 14.3375C14.4924 16.5027 11.6643 17.082 10.4279 15.2568C9.1906 13.4307 10.7789 11.0213 12.9458 11.4372C13.2654 11.4985 13.5697 11.6223 13.8414 11.8012C14.1131 11.9802 14.3469 12.211 14.5293 12.4804C14.7118 12.7497 14.8393 13.0524 14.9046 13.3711C14.97 13.6897 14.9718 14.0181 14.9101 14.3375V14.3375ZM13.2701 9.75202C11.1041 9.33448 10.5246 6.50501 12.3513 5.26821C14.1772 4.03225 16.5876 5.61992 16.1716 7.78515C16.1106 8.10489 15.9871 8.40948 15.8082 8.68146C15.6293 8.95344 15.3985 9.18748 15.129 9.37018C14.8595 9.55287 14.5566 9.68064 14.2376 9.74616C13.9186 9.81169 13.5899 9.81368 13.2701 9.75202V9.75202ZM11.325 19.388L13.2126 19.8964C14.0063 20.107 14.8512 19.9938 15.5614 19.5818C16.2717 19.1699 16.7893 18.4928 17.0003 17.6995L17.5339 15.6977C16.0316 17.698 13.7998 19.0243 11.3242 19.388H11.325ZM17.6973 2.99881L15.7272 2.47458C16.7228 3.24012 17.5564 4.19572 18.1796 5.28591C18.8027 6.37609 19.2031 7.57916 19.3573 8.82526L19.8992 6.77587C20.1066 5.98307 19.9911 5.14041 19.5781 4.43257C19.165 3.72473 18.4881 3.20945 17.6956 2.99964L17.6973 2.99881ZM0.554663 11.508L0.103607 13.2082C-0.107 14.0016 0.00620287 14.8462 0.418327 15.5562C0.830452 16.2662 1.50776 16.7835 2.30136 16.9945L4.05806 17.4628C2.18258 15.9889 0.931423 13.8628 0.553829 11.508H0.554663ZM8.62949 0.584382L6.78942 0.104331C6.39613 -0.000393333 5.98605 -0.0266098 5.58262 0.0271805C5.17919 0.0809707 4.79032 0.213713 4.43824 0.417819C4.08616 0.621925 3.77778 0.893393 3.53072 1.2167C3.28365 1.54001 3.10276 1.90883 2.99837 2.30206L2.53898 4.03725C4.05449 2.15175 6.23361 0.916523 8.63033 0.584382H8.62949Z" fill="#707070"/>
</svg>
