<svg width="20" height="20" viewBox="0 0 20 20" fill="none" xmlns="http://www.w3.org/2000/svg">
<path d="M1 0C0.734784 0 0.48043 0.0658398 0.292893 0.183035C0.105357 0.300231 0 0.459182 0 0.624922V11.2536C0 11.9166 0.421427 12.5524 1.17157 13.0211C1.92172 13.4899 2.93913 13.7533 4 13.7533H6.008V17.5003C6.008 18.1633 6.42943 18.7991 7.17957 19.2679C7.92972 19.7366 8.94713 20 10.008 20C11.0689 20 12.0863 19.7366 12.8364 19.2679C13.5866 18.7991 14.008 18.1633 14.008 17.5003V13.7533H16C17.0609 13.7533 18.0783 13.4899 18.8284 13.0211C19.5786 12.5524 20 11.9166 20 11.2536V0.626172C20 0.460432 19.8946 0.301481 19.7071 0.184285C19.5196 0.0670898 19.2652 0.0012499 19 0.0012499H1V0ZM2 10.0038H18V11.2536C18 11.5851 17.7893 11.903 17.4142 12.1374C17.0391 12.3718 16.5304 12.5034 16 12.5034H13.008C12.7428 12.5034 12.4884 12.5693 12.3009 12.6865C12.1134 12.8037 12.008 12.9626 12.008 13.1284V17.5003C12.008 17.8318 11.7973 18.1497 11.4222 18.3841C11.0471 18.6185 10.5384 18.7502 10.008 18.7502C9.47757 18.7502 8.96886 18.6185 8.59379 18.3841C8.21871 18.1497 8.008 17.8318 8.008 17.5003V13.1284C8.008 12.9626 7.90264 12.8037 7.71511 12.6865C7.52757 12.5693 7.27322 12.5034 7.008 12.5034H4C3.46957 12.5034 2.96086 12.3718 2.58579 12.1374C2.21071 11.903 2 11.5851 2 11.2536V10.0038ZM18 8.75391H2V1.25109H10V3.12586C10 3.2916 10.1054 3.45055 10.2929 3.56775C10.4804 3.68494 10.7348 3.75078 11 3.75078C11.2652 3.75078 11.5196 3.68494 11.7071 3.56775C11.8946 3.45055 12 3.2916 12 3.12586V1.25109H14V4.3782C14 4.54394 14.1054 4.70289 14.2929 4.82009C14.4804 4.93729 14.7348 5.00312 15 5.00312C15.2652 5.00312 15.5196 4.93729 15.7071 4.82009C15.8946 4.70289 16 4.54394 16 4.3782V1.25109H18V8.75516V8.75391Z" fill="#707070"/>
</svg>
