<svg width="20" height="20" viewBox="0 0 20 20" fill="none" xmlns="http://www.w3.org/2000/svg">
<path d="M19.4915 8H18.4661L16.0678 0.922222C15.9727 0.649109 15.82 0.41726 15.6279 0.253902C15.4358 0.0905452 15.212 0.00246306 14.9831 0H5.01695C4.78795 0.00246306 4.56424 0.0905452 4.3721 0.253902C4.17995 0.41726 4.02735 0.649109 3.9322 0.922222L1.5339 8H0.508475C0.373619 8 0.244286 8.07024 0.148929 8.19526C0.0535713 8.32029 0 8.48986 0 8.66667C0 8.84348 0.0535713 9.01305 0.148929 9.13807C0.244286 9.2631 0.373619 9.33333 0.508475 9.33333H1.35593V18.4444C1.35593 18.857 1.48093 19.2527 1.70343 19.5444C1.92593 19.8361 2.22771 20 2.54237 20H4.57627C4.89093 20 5.19271 19.8361 5.41521 19.5444C5.63771 19.2527 5.76271 18.857 5.76271 18.4444V16.4444H14.2373V18.4444C14.2373 18.857 14.3623 19.2527 14.5848 19.5444C14.8073 19.8361 15.1091 20 15.4237 20H17.4576C17.7723 20 18.0741 19.8361 18.2966 19.5444C18.5191 19.2527 18.6441 18.857 18.6441 18.4444V9.33333H19.4915C19.6264 9.33333 19.7557 9.2631 19.8511 9.13807C19.9464 9.01305 20 8.84348 20 8.66667C20 8.48986 19.9464 8.32029 19.8511 8.19526C19.7557 8.07024 19.6264 8 19.4915 8ZM4.86441 1.46667C4.8774 1.4276 4.8987 1.39427 4.92574 1.37062C4.95279 1.34698 4.98445 1.33404 5.01695 1.33333H14.9831C15.0156 1.33404 15.0472 1.34698 15.0743 1.37062C15.1013 1.39427 15.1226 1.4276 15.1356 1.46667L17.3559 8H2.64407L4.86441 1.46667ZM4.74576 18.4444C4.74576 18.5034 4.72791 18.5599 4.69612 18.6016C4.66433 18.6433 4.62122 18.6667 4.57627 18.6667H2.54237C2.49742 18.6667 2.45431 18.6433 2.42252 18.6016C2.39074 18.5599 2.37288 18.5034 2.37288 18.4444V16.4444H4.74576V18.4444ZM17.4576 18.6667H15.4237C15.3788 18.6667 15.3357 18.6433 15.3039 18.6016C15.2721 18.5599 15.2542 18.5034 15.2542 18.4444V16.4444H17.6271V18.4444C17.6271 18.5034 17.6093 18.5599 17.5775 18.6016C17.5457 18.6433 17.5026 18.6667 17.4576 18.6667ZM17.6271 15.1111H2.37288V9.33333H17.6271V15.1111ZM4.0678 12.2222C4.0678 12.0454 4.12137 11.8758 4.21673 11.7508C4.31208 11.6258 4.44142 11.5556 4.57627 11.5556H5.9322C6.06706 11.5556 6.19639 11.6258 6.29175 11.7508C6.38711 11.8758 6.44068 12.0454 6.44068 12.2222C6.44068 12.399 6.38711 12.5686 6.29175 12.6936C6.19639 12.8187 6.06706 12.8889 5.9322 12.8889H4.57627C4.44142 12.8889 4.31208 12.8187 4.21673 12.6936C4.12137 12.5686 4.0678 12.399 4.0678 12.2222ZM13.5593 12.2222C13.5593 12.0454 13.6129 11.8758 13.7083 11.7508C13.8036 11.6258 13.9329 11.5556 14.0678 11.5556H15.4237C15.5586 11.5556 15.6879 11.6258 15.7833 11.7508C15.8786 11.8758 15.9322 12.0454 15.9322 12.2222C15.9322 12.399 15.8786 12.5686 15.7833 12.6936C15.6879 12.8187 15.5586 12.8889 15.4237 12.8889H14.0678C13.9329 12.8889 13.8036 12.8187 13.7083 12.6936C13.6129 12.5686 13.5593 12.399 13.5593 12.2222Z" fill="#707070"/>
</svg>
