<svg width="20" height="20" viewBox="0 0 20 20" fill="none" xmlns="http://www.w3.org/2000/svg">
<path d="M18.75 18.5715H1.25V13.8001C0.784529 13.5453 0.361521 13.1996 0 12.7787V18.5715C0 18.9504 0.131696 19.3137 0.366116 19.5816C0.600537 19.8495 0.918479 20 1.25 20H18.75C19.0815 20 19.3995 19.8495 19.6339 19.5816C19.8683 19.3137 20 18.9504 20 18.5715V12.7787C19.6411 13.2013 19.2174 13.5451 18.75 13.793V18.5715Z" fill="#707070"/>
<path d="M14.375 14.5714C14.5408 14.5714 14.6997 14.4961 14.8169 14.3622C14.9342 14.2282 15 14.0466 15 13.8571V9.95715H13.75V11.4286H7.5V12.8571H13.75V13.8571C13.75 14.0466 13.8158 14.2282 13.9331 14.3622C14.0503 14.4961 14.2092 14.5714 14.375 14.5714Z" fill="#707070"/>
<path d="M19.375 2.85725H13.75V1.70012C13.7434 1.24291 13.5786 0.807316 13.2916 0.488698C13.0046 0.170081 12.6188 -0.00559457 12.2187 0.000135919H7.78125C7.38117 -0.00559457 6.9954 0.170081 6.70841 0.488698C6.42141 0.807316 6.25658 1.24291 6.25 1.70012V2.85725H0.625C0.45924 2.85725 0.300268 2.93251 0.183058 3.06646C0.065848 3.20041 0 3.38209 0 3.57153V9.28576C0 10.233 0.32924 11.1414 0.915291 11.8111C1.50134 12.4809 2.2962 12.8572 3.125 12.8572H5V13.8571C5 14.0466 5.06585 14.2283 5.18306 14.3622C5.30027 14.4962 5.45924 14.5714 5.625 14.5714C5.79076 14.5714 5.94973 14.4962 6.06694 14.3622C6.18415 14.2283 6.25 14.0466 6.25 13.8571V9.95719H5V11.4286H3.125C2.62772 11.4286 2.15081 11.2028 1.79917 10.801C1.44754 10.3991 1.25 9.85408 1.25 9.28576V4.28581H18.75V9.28576C18.75 9.85408 18.5525 10.3991 18.2008 10.801C17.8492 11.2028 17.3723 11.4286 16.875 11.4286H16.25V12.8572H16.875C17.7038 12.8572 18.4987 12.4809 19.0847 11.8111C19.6708 11.1414 20 10.233 20 9.28576V3.57153C20 3.38209 19.9342 3.20041 19.8169 3.06646C19.6997 2.93251 19.5408 2.85725 19.375 2.85725ZM12.5 2.85725H7.5V1.73583C7.50322 1.65309 7.53427 1.57495 7.58667 1.51773C7.63907 1.46051 7.70877 1.42861 7.78125 1.42869H12.225C12.2603 1.42775 12.2954 1.43475 12.3283 1.44932C12.3613 1.46388 12.3913 1.48572 12.4169 1.51358C12.4424 1.54144 12.4629 1.57477 12.4772 1.61168C12.4914 1.64859 12.4992 1.68835 12.5 1.72869V2.85725Z" fill="#707070"/>
</svg>
