<svg width="20" height="20" viewBox="0 0 20 20" fill="none" xmlns="http://www.w3.org/2000/svg">
<path d="M3.3475 14.5922C3.47725 14.7317 3.57667 14.9003 3.63868 15.0857C3.70069 15.2712 3.72376 15.469 3.70625 15.6651C3.6184 16.5727 3.45185 17.4695 3.20875 18.344C4.9525 17.9114 6.0175 17.4104 6.50125 17.1479C6.77563 16.999 7.09161 16.9637 7.38875 17.0488C8.24054 17.2921 9.11846 17.4146 10 17.4131C14.995 17.4131 18.75 13.6532 18.75 9.37629C18.75 5.1007 14.995 1.33947 10 1.33947C5.005 1.33947 1.25 5.1007 1.25 9.37629C1.25 11.3426 2.02125 13.167 3.3475 14.5922ZM2.73125 19.8228C2.43509 19.8857 2.13796 19.9433 1.84 19.9956C1.59 20.0385 1.4 19.7599 1.49875 19.5107C1.60974 19.2302 1.71147 18.9456 1.80375 18.6575L1.8075 18.6441C2.1175 17.6797 2.37 16.5706 2.4625 15.5378C0.92875 13.8903 0 11.7338 0 9.37629C0 4.1979 4.4775 0 10 0C15.5225 0 20 4.1979 20 9.37629C20 14.5547 15.5225 18.7526 10 18.7526C9.00956 18.754 8.02323 18.6162 7.06625 18.3427C6.41625 18.695 5.0175 19.3366 2.73125 19.8228V19.8228Z" fill="#707070"/>
</svg>
