<svg width="20" height="20" viewBox="0 0 20 20" fill="none" xmlns="http://www.w3.org/2000/svg">
<path d="M11 20C11.7956 20 12.5587 19.6839 13.1213 19.1213C13.6839 18.5587 14 17.7956 14 17V14H17C17.7956 14 18.5587 13.6839 19.1213 13.1213C19.6839 12.5587 20 11.7956 20 11V3C20 2.20435 19.6839 1.44129 19.1213 0.878679C18.5587 0.31607 17.7956 0 17 0H9C8.20435 0 7.44129 0.31607 6.87868 0.878679C6.31607 1.44129 6 2.20435 6 3V6H3C2.20435 6 1.44129 6.31607 0.87868 6.87868C0.31607 7.44129 0 8.20435 0 9L0 17C0 17.7956 0.31607 18.5587 0.87868 19.1213C1.44129 19.6839 2.20435 20 3 20H11ZM17 12H9C8.75507 12 8.51866 11.91 8.33563 11.7473C8.15259 11.5845 8.03566 11.3603 8.007 11.117L8 11V3C8.00003 2.75507 8.08996 2.51866 8.25272 2.33563C8.41547 2.15259 8.63975 2.03566 8.883 2.007L9 2H17C17.2449 2.00003 17.4813 2.08996 17.6644 2.25272C17.8474 2.41548 17.9643 2.63975 17.993 2.883L18 3V11C18 11.2449 17.91 11.4813 17.7473 11.6644C17.5845 11.8474 17.3603 11.9643 17.117 11.993L17 12ZM10 5C10.2652 5 10.5196 4.89464 10.7071 4.70711C10.8946 4.51957 11 4.26522 11 4C11 3.73478 10.8946 3.48043 10.7071 3.29289C10.5196 3.10536 10.2652 3 10 3C9.73478 3 9.48043 3.10536 9.29289 3.29289C9.10536 3.48043 9 3.73478 9 4C9 4.26522 9.10536 4.51957 9.29289 4.70711C9.48043 4.89464 9.73478 5 10 5V5ZM16 5C16.2652 5 16.5196 4.89464 16.7071 4.70711C16.8946 4.51957 17 4.26522 17 4C17 3.73478 16.8946 3.48043 16.7071 3.29289C16.5196 3.10536 16.2652 3 16 3C15.7348 3 15.4804 3.10536 15.2929 3.29289C15.1054 3.48043 15 3.73478 15 4C15 4.26522 15.1054 4.51957 15.2929 4.70711C15.4804 4.89464 15.7348 5 16 5V5ZM13 8C13.2652 8 13.5196 7.89464 13.7071 7.70711C13.8946 7.51957 14 7.26522 14 7C14 6.73478 13.8946 6.48043 13.7071 6.29289C13.5196 6.10536 13.2652 6 13 6C12.7348 6 12.4804 6.10536 12.2929 6.29289C12.1054 6.48043 12 6.73478 12 7C12 7.26522 12.1054 7.51957 12.2929 7.70711C12.4804 7.89464 12.7348 8 13 8V8ZM11.117 17.993L11 18H3C2.75507 18 2.51866 17.91 2.33563 17.7473C2.15259 17.5845 2.03566 17.3603 2.007 17.117L2 17V9C2.00003 8.75507 2.08996 8.51866 2.25272 8.33563C2.41547 8.15259 2.63975 8.03566 2.883 8.007L3 8H6V11C6 11.7956 6.31607 12.5587 6.87868 13.1213C7.44129 13.6839 8.20435 14 9 14H12V17C12 17.2449 11.91 17.4813 11.7473 17.6644C11.5845 17.8474 11.3603 17.9643 11.117 17.993ZM10 11C10.2652 11 10.5196 10.8946 10.7071 10.7071C10.8946 10.5196 11 10.2652 11 10C11 9.73478 10.8946 9.48043 10.7071 9.29289C10.5196 9.10536 10.2652 9 10 9C9.73478 9 9.48043 9.10536 9.29289 9.29289C9.10536 9.48043 9 9.73478 9 10C9 10.2652 9.10536 10.5196 9.29289 10.7071C9.48043 10.8946 9.73478 11 10 11V11ZM16 11C16.2652 11 16.5196 10.8946 16.7071 10.7071C16.8946 10.5196 17 10.2652 17 10C17 9.73478 16.8946 9.48043 16.7071 9.29289C16.5196 9.10536 16.2652 9 16 9C15.7348 9 15.4804 9.10536 15.2929 9.29289C15.1054 9.48043 15 9.73478 15 10C15 10.2652 15.1054 10.5196 15.2929 10.7071C15.4804 10.8946 15.7348 11 16 11V11ZM4.513 11.007C4.77822 11.007 5.03257 10.9016 5.22011 10.7141C5.40764 10.5266 5.513 10.2722 5.513 10.007C5.513 9.74178 5.40764 9.48743 5.22011 9.29989C5.03257 9.11236 4.77822 9.007 4.513 9.007C4.24778 9.007 3.99343 9.11236 3.80589 9.29989C3.61836 9.48743 3.513 9.74178 3.513 10.007C3.513 10.2722 3.61836 10.5266 3.80589 10.7141C3.99343 10.9016 4.24778 11.007 4.513 11.007ZM4.513 14.007C4.77822 14.007 5.03257 13.9016 5.22011 13.7141C5.40764 13.5266 5.513 13.2722 5.513 13.007C5.513 12.7418 5.40764 12.4874 5.22011 12.2999C5.03257 12.1124 4.77822 12.007 4.513 12.007C4.24778 12.007 3.99343 12.1124 3.80589 12.2999C3.61836 12.4874 3.513 12.7418 3.513 13.007C3.513 13.2722 3.61836 13.5266 3.80589 13.7141C3.99343 13.9016 4.24778 14.007 4.513 14.007V14.007ZM4.513 17.007C4.77822 17.007 5.03257 16.9016 5.22011 16.7141C5.40764 16.5266 5.513 16.2722 5.513 16.007C5.513 15.7418 5.40764 15.4874 5.22011 15.2999C5.03257 15.1124 4.77822 15.007 4.513 15.007C4.24778 15.007 3.99343 15.1124 3.80589 15.2999C3.61836 15.4874 3.513 15.7418 3.513 16.007C3.513 16.2722 3.61836 16.5266 3.80589 16.7141C3.99343 16.9016 4.24778 17.007 4.513 17.007ZM9.513 17.007C9.77822 17.007 10.0326 16.9016 10.2201 16.7141C10.4076 16.5266 10.513 16.2722 10.513 16.007C10.513 15.7418 10.4076 15.4874 10.2201 15.2999C10.0326 15.1124 9.77822 15.007 9.513 15.007C9.24778 15.007 8.99343 15.1124 8.80589 15.2999C8.61836 15.4874 8.513 15.7418 8.513 16.007C8.513 16.2722 8.61836 16.5266 8.80589 16.7141C8.99343 16.9016 9.24778 17.007 9.513 17.007V17.007Z" fill="#707070"/>
</svg>
