<svg width="20" height="20" viewBox="0 0 20 20" fill="none" xmlns="http://www.w3.org/2000/svg">
<path d="M17.8947 0H7.36828C6.20721 0 5.26299 0.897 5.26299 2V7.586L0.3082 12.293C0.161031 12.4329 0.0608123 12.611 0.0202144 12.805C-0.0203835 12.9989 0.000462059 13.2 0.0801156 13.3827C0.159769 13.5654 0.294654 13.7215 0.467719 13.8314C0.640784 13.9413 0.844259 14 1.05242 14V19C1.05242 19.2652 1.16332 19.5196 1.36073 19.7071C1.55814 19.8946 1.82588 20 2.10506 20H18.9474C19.2265 20 19.4943 19.8946 19.6917 19.7071C19.8891 19.5196 20 19.2652 20 19V2C20 0.897 19.0558 0 17.8947 0ZM9.47357 18H3.15771V12.414L6.31564 9.414L9.47357 12.414V18ZM17.8947 18H11.5789V14C11.7872 14.0004 11.9911 13.942 12.1645 13.8322C12.3378 13.7224 12.473 13.5662 12.5527 13.3833C12.6325 13.2004 12.6532 12.9991 12.6123 12.805C12.5714 12.6109 12.4708 12.4327 12.3231 12.293L7.36828 7.586V2H17.8947V18Z" fill="#707070"/>
<path d="M9.47351 4H11.5788V6H9.47351V4ZM13.6841 4H15.7894V6H13.6841V4ZM13.6841 8.031H15.7894V10H13.6841V8.031ZM13.6841 12H15.7894V14H13.6841V12ZM5.26294 13H7.36823V15H5.26294V13Z" fill="#707070"/>
</svg>
