<svg width="20" height="20" viewBox="0 0 20 20" fill="none" xmlns="http://www.w3.org/2000/svg">
<rect width="20" height="20" rx="3" fill="#707070"/>
<path d="M6.35798 18H3.24804V7.98536H6.35798V18ZM4.80114 6.61929C3.80681 6.61929 3 5.79536 3 4.80107C3 4.3234 3.18976 3.86529 3.52754 3.52752C3.86532 3.18976 4.32344 3 4.80114 3C5.27883 3 5.73695 3.18976 6.07473 3.52752C6.41251 3.86529 6.60227 4.3234 6.60227 4.80107C6.60227 5.79536 5.79546 6.61929 4.80114 6.61929ZM17.9973 18H14.8944V13.125C14.8944 11.963 14.8708 10.4732 13.2775 10.4732C11.6607 10.4732 11.4126 11.7354 11.4126 13.0414V18H8.3059V7.98536H11.2883V9.35143H11.3317C11.7469 8.56446 12.7611 7.73411 14.274 7.73411C17.4214 7.73411 18 9.80679 18 12.4988V18H17.9973Z" fill="white"/>
</svg>
