<svg width="12" height="20" viewBox="0 0 12 20" fill="none" xmlns="http://www.w3.org/2000/svg">
<path d="M8.57127 8.75023C8.57127 9.74477 8.30037 10.6986 7.81816 11.4018C7.33596 12.1051 6.68194 12.5002 6 12.5002C5.31806 12.5002 4.66404 12.1051 4.18184 11.4018C3.69963 10.6986 3.42873 9.74477 3.42873 8.75023C3.42873 7.75569 3.69963 6.80189 4.18184 6.09864C4.66404 5.39539 5.31806 5.00031 6 5.00031C6.68194 5.00031 7.33596 5.39539 7.81816 6.09864C8.30037 6.80189 8.57127 7.75569 8.57127 8.75023V8.75023ZM7.71418 8.75023C7.71418 8.08721 7.53358 7.45133 7.21211 6.9825C6.89064 6.51367 6.45463 6.25029 6 6.25029C5.54537 6.25029 5.10936 6.51367 4.78789 6.9825C4.46642 7.45133 4.28582 8.08721 4.28582 8.75023C4.28582 9.41326 4.46642 10.0491 4.78789 10.518C5.10936 10.9868 5.54537 11.2502 6 11.2502C6.45463 11.2502 6.89064 10.9868 7.21211 10.518C7.53358 10.0491 7.71418 9.41326 7.71418 8.75023ZM10.2426 14.9439C11.3679 13.3019 12 11.0755 12 8.75398C12 6.43252 11.3679 4.20606 10.2426 2.56411C9.68558 1.75123 9.0242 1.10638 8.29624 0.666414C7.56827 0.226451 6.788 0 6 0C5.212 0 4.43173 0.226451 3.70376 0.666414C2.9758 1.10638 2.31442 1.75123 1.75741 2.56411C0.632127 4.20606 0 6.43252 0 8.75398C0 11.0755 0.632127 13.3019 1.75741 14.9439L3.06104 16.8176L4.81207 19.2988L4.92607 19.4463C5.59031 20.2312 6.56311 20.1812 7.18878 19.2988L9.2758 16.3363L10.2426 14.9439V14.9439ZM2.36165 3.44534C2.83937 2.74833 3.40657 2.19542 4.03085 1.81818C4.65513 1.44094 5.32425 1.24678 6 1.24678C6.67575 1.24678 7.34487 1.44094 7.96915 1.81818C8.59343 2.19542 9.16063 2.74833 9.63834 3.44534C10.5766 4.81463 11.1161 6.65943 11.1442 8.5948C11.1723 10.5302 10.6869 12.4066 9.78919 13.8326L9.63834 14.0626L8.50613 15.6926L6.59482 18.4025L6.51425 18.5025C6.36606 18.6654 6.18555 18.7535 6 18.7535C5.81445 18.7535 5.63394 18.6654 5.48575 18.5025L5.40604 18.4025L2.85191 14.7714L2.36165 14.0626L2.21081 13.8339C1.31313 12.4079 0.827703 10.5314 0.855809 8.59605C0.883915 6.66068 1.42339 4.81588 2.36165 3.44659V3.44534Z" fill="#707070"/>
</svg>
