<svg width="20" height="20" viewBox="0 0 20 20" fill="none" xmlns="http://www.w3.org/2000/svg">
<path d="M10 13.75C11.4466 13.75 12.834 13.3549 13.8569 12.6517C14.8799 11.9484 15.4545 10.9946 15.4545 10V3.75C15.4545 2.75544 14.8799 1.80161 13.8569 1.09835C12.834 0.395088 11.4466 0 10 0C8.55336 0 7.16598 0.395088 6.14305 1.09835C5.12013 1.80161 4.54545 2.75544 4.54545 3.75V10C4.54545 10.9946 5.12013 11.9484 6.14305 12.6517C7.16598 13.3549 8.55336 13.75 10 13.75ZM10 12.5C9.03558 12.5 8.11065 12.2366 7.4287 11.7678C6.74675 11.2989 6.36364 10.663 6.36364 10V3.75C6.36364 3.08696 6.74675 2.45107 7.4287 1.98223C8.11065 1.51339 9.03558 1.25 10 1.25C10.9644 1.25 11.8893 1.51339 12.5713 1.98223C13.2532 2.45107 13.6364 3.08696 13.6364 3.75V10C13.6364 10.663 13.2532 11.2989 12.5713 11.7678C11.8893 12.2366 10.9644 12.5 10 12.5ZM0.909091 9.375C1.1502 9.375 1.38143 9.44085 1.55192 9.55806C1.7224 9.67527 1.81818 9.83424 1.81818 10C1.81818 10.7387 2.02981 11.4701 2.44099 12.1526C2.85216 12.8351 3.45483 13.4551 4.21458 13.9775C4.97433 14.4998 5.87629 14.9141 6.86895 15.1968C7.86162 15.4795 8.92555 15.625 10 15.625C11.0745 15.625 12.1384 15.4795 13.131 15.1968C14.1237 14.9141 15.0257 14.4998 15.7854 13.9775C16.5452 13.4551 17.1478 12.8351 17.559 12.1526C17.9702 11.4701 18.1818 10.7387 18.1818 10C18.1818 9.83424 18.2776 9.67527 18.4481 9.55806C18.6186 9.44085 18.8498 9.375 19.0909 9.375C19.332 9.375 19.5632 9.44085 19.7337 9.55806C19.9042 9.67527 20 9.83424 20 10C20.0004 11.7153 19.068 13.3688 17.386 14.6357C15.7039 15.9027 13.3938 16.6916 10.9091 16.8475V19.375C10.9091 19.5408 10.8133 19.6997 10.6428 19.8169C10.4723 19.9342 10.2411 20 10 20C9.75889 20 9.52766 19.9342 9.35718 19.8169C9.18669 19.6997 9.09091 19.5408 9.09091 19.375V16.8475C6.60621 16.6916 4.29605 15.9027 2.61404 14.6357C0.932017 13.3688 -0.00035121 11.7153 9.92418e-08 10C9.92418e-08 9.83424 0.0957792 9.67527 0.266267 9.55806C0.436754 9.44085 0.667985 9.375 0.909091 9.375V9.375Z" fill="#707070"/>
</svg>
