<svg width="20" height="20" viewBox="0 0 20 20" fill="none" xmlns="http://www.w3.org/2000/svg">
<path d="M16 1.25C16.5304 1.25 17.0391 1.3817 17.4142 1.61612C17.7893 1.85054 18 2.16848 18 2.5V17.5C18 17.8315 17.7893 18.1495 17.4142 18.3839C17.0391 18.6183 16.5304 18.75 16 18.75H4C3.46957 18.75 2.96086 18.6183 2.58579 18.3839C2.21071 18.1495 2 17.8315 2 17.5V2.5C2 2.16848 2.21071 1.85054 2.58579 1.61612C2.96086 1.3817 3.46957 1.25 4 1.25H16ZM4 0C2.93913 0 1.92172 0.263392 1.17157 0.732233C0.421427 1.20107 0 1.83696 0 2.5V17.5C0 18.163 0.421427 18.7989 1.17157 19.2678C1.92172 19.7366 2.93913 20 4 20H16C17.0609 20 18.0783 19.7366 18.8284 19.2678C19.5786 18.7989 20 18.163 20 17.5V2.5C20 1.83696 19.5786 1.20107 18.8284 0.732233C18.0783 0.263392 17.0609 0 16 0L4 0Z" fill="#707070"/>
<path d="M10 17.5C10.5304 17.5 11.0391 17.3683 11.4142 17.1339C11.7893 16.8995 12 16.5815 12 16.25C12 15.9185 11.7893 15.6005 11.4142 15.3661C11.0391 15.1317 10.5304 15 10 15C9.46957 15 8.96086 15.1317 8.58579 15.3661C8.21071 15.6005 8 15.9185 8 16.25C8 16.5815 8.21071 16.8995 8.58579 17.1339C8.96086 17.3683 9.46957 17.5 10 17.5Z" fill="#707070"/>
</svg>
