<svg width="20" height="20" viewBox="0 0 20 20" fill="none" xmlns="http://www.w3.org/2000/svg">
<path d="M6.66667 1.42857C7.32594 1.42857 7.9704 1.63803 8.51857 2.03047C9.06673 2.4229 9.49397 2.98068 9.74627 3.63327C9.99856 4.28587 10.0646 5.00396 9.93595 5.69675C9.80733 6.38954 9.48986 7.02591 9.02369 7.52538C8.55751 8.02485 7.96357 8.365 7.31697 8.50281C6.67036 8.64061 6.00014 8.56988 5.39106 8.29957C4.78197 8.02926 4.26137 7.5715 3.8951 6.98418C3.52883 6.39686 3.33333 5.70636 3.33333 5C3.33333 4.0528 3.68452 3.14439 4.30964 2.47462C4.93477 1.80485 5.78261 1.42857 6.66667 1.42857V1.42857ZM6.66667 0C5.74369 0 4.84144 0.293245 4.07401 0.842652C3.30658 1.39206 2.70844 2.17295 2.35523 3.08658C2.00202 4.00021 1.9096 5.00555 2.08967 5.97545C2.26973 6.94536 2.71419 7.83627 3.36684 8.53553C4.01948 9.2348 4.851 9.711 5.75625 9.90393C6.66149 10.0969 7.5998 9.99784 8.45252 9.6194C9.30525 9.24096 10.0341 8.6001 10.5469 7.77785C11.0596 6.95561 11.3333 5.98891 11.3333 5C11.3333 3.67392 10.8417 2.40215 9.9665 1.46447C9.09133 0.526784 7.90434 0 6.66667 0V0ZM13.3333 20H12V16.4286C12 15.4814 11.6488 14.573 11.0237 13.9032C10.3986 13.2334 9.55072 12.8571 8.66667 12.8571H4.66667C3.78261 12.8571 2.93477 13.2334 2.30964 13.9032C1.68452 14.573 1.33333 15.4814 1.33333 16.4286V20H0V16.4286C0 15.1025 0.491665 13.8307 1.36683 12.893C2.242 11.9554 3.42899 11.4286 4.66667 11.4286H8.66667C9.90434 11.4286 11.0913 11.9554 11.9665 12.893C12.8417 13.8307 13.3333 15.1025 13.3333 16.4286V20ZM13.3333 1.42857H20V2.85714H13.3333V1.42857ZM13.3333 5H20V6.42857H13.3333V5ZM13.3333 8.57143H18V10H13.3333V8.57143Z" fill="#707070"/>
</svg>
