<svg width="22" height="22" viewBox="0 0 22 22" fill="none" xmlns="http://www.w3.org/2000/svg">
<path d="M16.6052 7C14.9031 7 13.5233 5.65685 13.5233 4C13.5233 2.34315 14.9031 1 16.6052 1C18.3072 1 19.687 2.34315 19.687 4C19.687 5.65685 18.3072 7 16.6052 7Z" stroke="#707070"/>
<path d="M13.5233 11H17.7372C18.4882 11.0002 19.2133 11.2674 19.7763 11.7513C20.3392 12.2352 20.7013 12.9026 20.7944 13.628L21.4529 18.752C21.489 19.0334 21.4632 19.3191 21.3773 19.5901C21.2913 19.8611 21.1471 20.1112 20.9543 20.3238C20.7614 20.5364 20.5243 20.7066 20.2587 20.8232C19.9931 20.9398 19.7051 21.0001 19.4137 21H14.5506L13.5233 11ZM1.48461 18.752L2.14207 13.628C2.23524 12.9022 2.59758 12.2346 3.16096 11.7506C3.72433 11.2667 4.44993 10.9997 5.20131 11H7.46544C8.21646 11.0002 8.94156 11.2674 9.5045 11.7513C10.0674 12.2352 10.4295 12.9026 10.5226 13.628L11.1811 18.752C11.2173 19.0335 11.1914 19.3193 11.1054 19.5903C11.0194 19.8614 10.8751 20.1116 10.6822 20.3242C10.4892 20.5368 10.252 20.707 9.98625 20.8235C9.72052 20.94 9.43237 21.0002 9.14093 21H3.52376C3.2324 21.0001 2.94437 20.9398 2.67876 20.8232C2.41316 20.7066 2.17607 20.5364 1.98322 20.3238C1.79038 20.1112 1.64618 19.8611 1.56022 19.5901C1.47425 19.3191 1.44848 19.0334 1.48461 18.752Z" stroke="#707070" stroke-linecap="round" stroke-linejoin="round"/>
<path d="M6.33246 7C4.63041 7 3.25062 5.65685 3.25062 4C3.25062 2.34315 4.63041 1 6.33246 1C8.03452 1 9.41431 2.34315 9.41431 4C9.41431 5.65685 8.03452 7 6.33246 7Z" stroke="#707070"/>
</svg>
