<svg width="20" height="20" viewBox="0 0 20 20" fill="none" xmlns="http://www.w3.org/2000/svg">
<path d="M17.9452 4.98434C17.9585 5.20361 17.9585 5.42163 17.9585 5.63964C17.9585 12.3117 13.8337 20 6.29554 20C3.97313 20 1.81559 19.1718 0 17.7334C0.329737 17.7797 0.647262 17.796 0.99023 17.796C2.83533 17.8015 4.62818 17.0419 6.07979 15.6396C5.22432 15.6206 4.39505 15.2731 3.70775 14.6457C3.02046 14.0183 2.50945 13.1423 2.24608 12.1401C2.49949 12.1864 2.75392 12.2178 3.02056 12.2178C3.38795 12.2178 3.75738 12.1551 4.10035 12.0461C3.17195 11.8153 2.33714 11.1958 1.73786 10.2928C1.13857 9.38983 0.811819 8.25917 0.813149 7.0931V7.03045C1.35966 7.40509 1.99369 7.63939 2.66538 7.67072C2.10268 7.21036 1.64128 6.58567 1.32235 5.85239C1.00342 5.11911 0.836875 4.30003 0.837574 3.46824C0.837574 2.53101 1.0401 1.67147 1.39528 0.922191C2.42534 2.48217 3.71006 3.75838 5.16623 4.66816C6.6224 5.57794 8.21755 6.10101 9.84836 6.20348C9.78526 5.82759 9.74659 5.43792 9.74659 5.04699C9.74632 4.38411 9.85217 3.72768 10.0581 3.1152C10.264 2.50272 10.5659 1.94622 10.9467 1.47749C11.3274 1.00877 11.7794 0.637027 12.2769 0.383509C12.7743 0.129991 13.3075 -0.000328755 13.8459 6.22808e-07C15.0265 6.22808e-07 16.092 0.608947 16.841 1.59379C17.7588 1.37529 18.6389 0.962815 19.4423 0.37464C19.1364 1.54093 18.4956 2.52989 17.6399 3.15625C18.4539 3.04195 19.2494 2.77841 20 2.37439C19.4394 3.38065 18.7447 4.26306 17.9452 4.98434V4.98434Z" fill="#707070"/>
</svg>
