<svg width="20" height="20" viewBox="0 0 20 20" fill="none" xmlns="http://www.w3.org/2000/svg">
<path d="M20 10C19.9999 8.8751 19.622 7.76639 18.8974 6.76568C18.1728 5.76497 17.1224 4.90105 15.8332 4.24546L15.0127 1.04546C14.9375 0.751735 14.7191 0.486098 14.3957 0.294991C14.0723 0.103884 13.6644 -0.000531433 13.2434 2.03405e-06H6.75607C6.33508 -0.000531433 5.92721 0.103884 5.60379 0.294991C5.28037 0.486098 5.06198 0.751735 4.9868 1.04546L4.16626 4.24546C2.87719 4.90109 1.82692 5.76502 1.10241 6.76573C0.3779 7.76644 0 8.87513 0 10C0 11.1249 0.3779 12.2336 1.10241 13.2343C1.82692 14.235 2.87719 15.0989 4.16626 15.7545L4.9868 18.9545C5.06198 19.2483 5.28037 19.5139 5.60379 19.705C5.92721 19.8961 6.33508 20.0005 6.75607 20H13.2434C13.6644 20.0005 14.0723 19.8961 14.3957 19.705C14.7191 19.5139 14.9375 19.2483 15.0127 18.9545L15.8332 15.7545C17.1224 15.099 18.1728 14.235 18.8974 13.2343C19.622 12.2336 19.9999 11.1249 20 10V10ZM6.49966 1.23637C6.51164 1.19468 6.54387 1.15729 6.59072 1.13072C6.63757 1.10414 6.69609 1.09005 6.75607 1.09091H13.2434C13.3034 1.09005 13.3619 1.10414 13.4088 1.13072C13.4556 1.15729 13.4878 1.19468 13.4998 1.23637L14.0896 3.52727C12.8028 3.1196 11.4092 2.90888 9.99975 2.90888C8.59032 2.90888 7.19673 3.1196 5.9099 3.52727L6.49966 1.23637ZM13.4998 18.7636C13.4878 18.8053 13.4556 18.8427 13.4088 18.8693C13.3619 18.8959 13.3034 18.9099 13.2434 18.9091H6.75607C6.69609 18.9099 6.63757 18.8959 6.59072 18.8693C6.54387 18.8427 6.51164 18.8053 6.49966 18.7636L5.9099 16.4727C7.19673 16.8804 8.59032 17.0911 9.99975 17.0911C11.4092 17.0911 12.8028 16.8804 14.0896 16.4727L13.4998 18.7636ZM9.99975 16C8.32617 16 6.69018 15.6481 5.29865 14.9888C3.90712 14.3295 2.82255 13.3925 2.1821 12.2961C1.54165 11.1997 1.37408 9.99334 1.70058 8.82946C2.02708 7.66557 2.83299 6.59648 4.01638 5.75736C5.19978 4.91825 6.70752 4.3468 8.34894 4.11529C9.99036 3.88378 11.6917 4.0026 13.2379 4.45672C14.7841 4.91085 16.1056 5.67988 17.0354 6.66658C17.9652 7.65327 18.4615 8.81331 18.4615 10C18.4581 11.5906 17.5655 13.1153 15.9794 14.24C14.3932 15.3647 12.2429 15.9976 9.99975 16ZM15.8973 10C15.8973 10.1447 15.8163 10.2834 15.672 10.3857C15.5278 10.488 15.3321 10.5455 15.1281 10.5455H9.99975C9.79573 10.5455 9.60007 10.488 9.4558 10.3857C9.31154 10.2834 9.2305 10.1447 9.2305 10V6.36364C9.2305 6.21897 9.31154 6.08024 9.4558 5.97794C9.60007 5.87565 9.79573 5.81818 9.99975 5.81818C10.2038 5.81818 10.3994 5.87565 10.5437 5.97794C10.688 6.08024 10.769 6.21897 10.769 6.36364V9.45455H15.1281C15.3321 9.45455 15.5278 9.51201 15.672 9.61431C15.8163 9.7166 15.8973 9.85534 15.8973 10Z" fill="#707070"/>
</svg>
